<?xml version="1.0" encoding="UTF-8" standalone="no"?>
<svg
   version="1.0"
   width="445.000000pt"
   height="445.000000pt"
   viewBox="0 0 445.000000 445.000000"
   preserveAspectRatio="xMidYMid meet"
   id="svg1"
   sodipodi:docname="logo-2.svg"
   inkscape:version="1.4.3 (0d15f75, 2025-12-25)"
   xmlns:inkscape="http://www.inkscape.org/namespaces/inkscape"
   xmlns:sodipodi="http://sodipodi.sourceforge.net/DTD/sodipodi-0.dtd"
   xmlns="http://www.w3.org/2000/svg"
   xmlns:svg="http://www.w3.org/2000/svg">
  <defs
     id="defs1" />
  <sodipodi:namedview
     id="namedview1"
     pagecolor="#ffffff"
     bordercolor="#000000"
     borderopacity="0.25"
     inkscape:showpageshadow="2"
     inkscape:pageopacity="0.0"
     inkscape:pagecheckerboard="0"
     inkscape:deskcolor="#d1d1d1"
     inkscape:document-units="pt"
     inkscape:zoom="0.70112359"
     inkscape:cx="296.66667"
     inkscape:cy="296.66667"
     inkscape:window-width="1512"
     inkscape:window-height="921"
     inkscape:window-x="0"
     inkscape:window-y="33"
     inkscape:window-maximized="1"
     inkscape:current-layer="svg1" />
  <g
     transform="matrix(0.1,0,0,-0.1,0.18608445,380.26051)"
     fill="#000000"
     stroke="none"
     id="g1">
    <path
       d="M 2035,3143 C 1583,3130 1125,3046 805,2917 653,2856 419,2737 332,2677 246,2618 129,2496 81,2415 10,2297 0,2234 21,2024 88,1340 447,739 1010,367 1273,193 1588,74 1915,24 c 151,-23 450,-23 610,0 396,57 764,215 1079,464 91,71 277,257 348,348 309,391 479,869 482,1349 l 1,151 -39,79 c -166,337 -802,606 -1651,700 -127,14 -552,37 -600,33 -11,-1 -60,-3 -110,-5 z m 580,-107 c 559,-73 998,-249 1251,-501 107,-106 158,-204 158,-303 0,-81 -16,-116 -86,-184 -339,-330 -1555,-495 -2498,-337 -511,85 -867,243 -956,425 -24,48 -26,62 -20,117 20,192 141,383 322,508 222,153 603,254 1079,288 174,13 613,5 750,-13 z M 162,1873 c 344,-322 1354,-576 2185,-549 601,19 1103,131 1532,341 175,86 164,97 99,-100 -50,-153 -159,-373 -246,-495 C 3548,812 3277,595 2987,475 2725,367 2473,323 2170,333 c -332,11 -605,80 -905,227 -375,186 -693,471 -930,834 -75,114 -181,323 -232,456 -59,153 -61,163 -26,115 17,-22 55,-63 85,-92 z"
       id="path1" />
  </g>
</svg>
